<?xml version="1.0" standalone="no"?>
<!DOCTYPE svg PUBLIC "-//W3C//DTD SVG 1.1//EN" "http://www.w3.org/Graphics/SVG/1.1/DTD/svg11.dtd" >
<svg xmlns="http://www.w3.org/2000/svg">
<metadata></metadata>
<defs>
<font id="dungeonregular" horiz-adv-x="395" >
<font-face units-per-em="2048" ascent="1638" descent="-410" />
<missing-glyph horiz-adv-x="249" />
<glyph horiz-adv-x="2048" />
<glyph horiz-adv-x="2048" />
<glyph unicode="&#xd;" horiz-adv-x="2048" />
<glyph unicode=" "  horiz-adv-x="249" />
<glyph unicode="&#x09;" horiz-adv-x="249" />
<glyph unicode="&#xa0;" horiz-adv-x="249" />
<glyph unicode="!" horiz-adv-x="270" d="M20 1425q6 2 25 11q29 12 31 -17v-12v-39q0 -10 2 -33l47 -639h59l64 690q2 47 -10 70q-23 39 -82 45q-37 4 -97 -24q-23 -10 -39 -19v-33zM90 518q-2 -43 23 -43q10 0 24 8q31 18 64 47q12 10 12 39q0 25 -14 25q-9 0 -19 -4q-23 -8 -67 -25q-29 -8 -23 -47z" />
<glyph unicode="&#x22;" horiz-adv-x="454" d="M20 1116q190 55 197 309v33q0 41 -22 41q-4 0 -111 -35q-43 -14 -35 -69q-4 -66 35 -66q16 0 53 21q4 -18 2 -31q0 -92 -119 -178v-25zM236 1114q190 55 196 311v33q2 39 -22 39q2 0 -109 -35q-43 -14 -37 -67q-4 -68 35 -68q16 0 53 21q4 -16 4 -29q-2 -94 -120 -178 v-27z" />
<glyph unicode="#" horiz-adv-x="792" d="M20 805h181l-68 -334l66 -12l69 346l217 -2l-49 -238q-10 -53 -6 -71t27 -23q39 -6 84 12l6 29q-6 -2 -23 -4q-25 -8 -24 16q2 8 2 13l53 266l160 -2l10 59h-158l43 215l150 -2l12 72l-2 -2h-147l65 321l-63 13l-70 -334l-217 2l47 223q10 55 6 74q-4 18 -26 22 q-25 4 -84 -12l-5 -29l21 4q25 8 25 -18q-2 -6 -3 -10l-51 -254l-207 2v-66h19l174 -2l-43 -217l-178 2zM20 805h181l-68 -334l66 -12l69 346l217 -2l-49 -238q-10 -53 -6 -71t27 -23q39 -6 84 12l6 29q-6 -2 -23 -4q-25 -8 -24 16q2 8 2 13l53 266l160 -2l10 59h-158 l43 215l150 -2l12 72l-2 -2h-147l65 321l-63 13l-70 -334l-217 2l47 223q10 55 6 74q-4 18 -26 22q-25 4 -84 -12l-5 -29l21 4q25 8 25 -18q-2 -6 -3 -10l-51 -254l-207 2v-66h19l174 -2l-43 -217l-178 2zM281 862l45 215l211 -2l-41 -213h-215zM281 862l45 215l211 -2 l-41 -213h-215z" />
<glyph unicode="$" horiz-adv-x="722" d="M29 692q-8 -51 67 -131q102 -106 273 -115l-2 -135h53v135q127 6 203.5 86t78.5 207q0 119 -88 203q-53 51 -190 117l2 342q104 -39 135 -107q14 -29 4 -39q-2 -4 -33 -16l21 -20q57 10 68 12q41 12 47 41q6 33 -47 88q-70 74 -193 92v123h-53v-117h-25q-111 2 -188 -65 q-84 -72 -84 -179q-2 -115 94 -192q43 -35 199 -113l-2 -420q-168 10 -234 179q-18 45 6 53q12 4 23 8l-21 23q-33 -6 -70.5 -16.5t-43.5 -43.5zM190 1280q0 61 49.5 98t112.5 37q6 0 23 -2l-2 -328q-183 91 -183 195zM420 492l4 391q158 -86 156 -201q-2 -167 -160 -190z " />
<glyph unicode="%" horiz-adv-x="813" d="M20 1194q0 -98 37 -166q47 -86 136 -88q86 0 133 86q41 74 41 166q0 94 -39 166q-47 90 -133 90q-88 2 -136 -88q-39 -72 -39 -166zM20 1194q0 -98 37 -166q47 -86 136 -88q86 0 133 86q41 74 41 166q0 94 -39 166q-47 90 -133 90q-88 2 -136 -88q-39 -72 -39 -166z M98 1196q0 227 97 227q94 0 92 -229q-2 -227 -94 -227q-95 2 -95 229zM98 1196q0 227 97 227q94 0 92 -229q-2 -227 -94 -227q-95 2 -95 229zM100 461q0 -31 56 -33q20 -2 32 -2l13 23l-19 2q-24 2 -16 20q2 2 6 10l492 895q25 45 24 62q0 27 -53 32q-20 2 -35 3l-12 -23 l20 -2q25 -2 15 -21l-5 -10l-493 -895q-25 -45 -25 -61zM100 461q0 -31 56 -33q20 -2 32 -2l13 23l-19 2q-24 2 -16 20q2 2 6 10l492 895q25 45 24 62q0 27 -53 32q-20 2 -35 3l-12 -23l20 -2q25 -2 15 -21l-5 -10l-493 -895q-25 -45 -25 -61zM446 692q-2 -94 39 -166 q47 -88 133 -88q88 -2 136 86q39 70 39 166t-37 166q-47 88 -133 90t-136 -88q-39 -72 -41 -166zM446 692q-2 -94 39 -166q47 -88 133 -88q88 -2 136 86q39 70 39 166t-37 166q-47 88 -133 90t-136 -88q-39 -72 -41 -166zM526 694q2 227 95 228q94 0 92 -230 q-1 -227 -95 -227t-92 229zM526 694q2 227 95 228q94 0 92 -230q-1 -227 -95 -227t-92 229z" />
<glyph unicode="&#x26;" horiz-adv-x="882" d="M25 733q2 -109 83.5 -189.5t188.5 -80.5q145 0 283 141q25 -27 86 -96q39 -45 82 -39q29 4 81 53l33 33l-12 35q-35 -25 -41 -27q-41 0 -150 146q98 115 99 190q0 70 -70 125q-27 -27 -26 -53q0 -14 20 -41t20 -53q0 -51 -69 -132q-76 113 -232 332q102 61 138 94 q70 63 69 146q0 72 -71 117q-61 41 -138 41q-86 2 -153.5 -46.5t-69.5 -132.5q-2 -86 92 -233q-248 -135 -243 -330zM154 807q2 113 141 213q82 -127 256 -379q-78 -86 -189 -80q-86 4 -149 84q-59 74 -59 162zM279 1313q0 45 34.5 74.5t81.5 29.5q49 0 84 -34.5t35 -84.5 q0 -96 -139 -180q-98 143 -96 195z" />
<glyph unicode="'" horiz-adv-x="237" d="M20 1118q188 55 197 312v32q0 39 -24 39q-4 0 -109 -33q-43 -14 -35 -69q-4 -68 35 -68q16 0 51 21q4 -16 4 -29q0 -92 -119 -178v-27z" />
<glyph unicode="(" horiz-adv-x="415" d="M23 717q2 379 188 678q45 82 70 82q20 0 65 -54q10 -12 29 -32l-17 -33q-8 8 -32 31q-14 12 -23 12q-6 0 -8 -6q-172 -266 -174 -678q-2 -147 53 -289q57 -152 160 -248q16 -4 26 8l19 23l16 -33q-39 -59 -100 -92q-12 -8 -23 -8q-27 0 -71 84h2l-2 2q-102 188 -131 266 q-49 131 -47 287z" />
<glyph unicode=")" horiz-adv-x="421" d="M20 176q29 -57 99 -94q12 -8 22 -8q27 0 72 82v2q109 199 135 266q53 133 53 285q0 381 -180 680q-43 84 -67 84q-23 0 -68 -54q-10 -12 -29 -33l17 -32q41 41 55 41q6 0 8 -4q168 -268 166 -682q-2 -150 -57 -289q-61 -147 -166 -244q-14 -4 -25 10l-18 21z" />
<glyph unicode="*" horiz-adv-x="565" d="M20 1245l31 -20q2 4 4 28q4 35 31 21q6 -4 14 -8l107 -66l-68 -57q-66 -57 -65 -82q0 -37 61 -62q27 -10 43 -16l27 23l-25 12q-31 14 -10 37q6 4 10 10l94 80l31 -72q37 -90 66 -90q8 0 20 6q39 14 78 70l-14 35l-19 -21q-25 -27 -37 2l-6 12l-49 119l90 6q111 8 107 58 q-2 37 -43 94l-37 -2l14 -25q18 -31 -14 -34q-8 0 -15 -3l-124 -10l18 80q12 53 12 76q0 35 -33 43q-27 6 -59 0q-23 -4 -45 -12l-8 -35l29 4q29 8 28 -23q-2 -8 -2 -14l-31 -123l-69 43q-63 39 -88 39q-43 0 -49 -74q-4 -31 -5 -49z" />
<glyph unicode="+" horiz-adv-x="772" d="M23 999q-2 -14 12 -43q4 -10 10 -20h16l-4 12q-2 4 -2 8q0 6 8 9q10 0 285 -2l-2 -271q0 -51 39 -55q14 -2 43 12l21 10v17l-13 -4q-4 -2 -8 -2q-6 0 -6 8v285l270 -2q51 0 56 38q4 29 -23 64h-16l4 -12q2 -4 2 -9q0 -6 -8 -6h-285l2 271q0 51 -39 55q-14 2 -43 -12 q-10 -4 -20 -11v-16l12 6q14 6 16 -8q0 -25 -2 -285l-270 2q-51 0 -55 -39z" />
<glyph unicode="," horiz-adv-x="239" d="M20 236q190 55 197 309q2 4 2 33q0 41 -24 40q-4 0 -109 -34q-43 -14 -37 -70q-4 -68 37 -68q16 0 51 21q4 -16 4 -29q0 -92 -121 -178v-24z" />
<glyph unicode="-" d="M23 799q-2 -16 22 -66h16l-4 12q-6 16 9 17h251q23 0 33 4q20 12 23 33q1 16 -13 45l-10 20h-16q0 -4 4 -12q6 -14 -6 -16h-254q-23 0 -33 -5q-20 -12 -22 -32z" />
<glyph unicode="." horiz-adv-x="215" d="M27 510q-4 -68 34 -68q39 0 117 70q14 14 17 61q0 41 -23 41q-5 1 -109 -34q-43 -14 -36 -70z" />
<glyph unicode="/" horiz-adv-x="647" d="M23 111q10 -74 118 -64q23 2 56 6l10 29q-5 0 -21 -2q-14 0 -28.5 8t-7.5 23l227 608h-2l235 635q16 39 13 61q-12 72 -117 62q-23 -2 -57 -7l-11 -26h23q14 2 28.5 -7.5t8.5 -23.5l-250 -674h2l-215 -569q-14 -39 -12 -59z" />
<glyph unicode="0" horiz-adv-x="684" d="M20 981q0 180 72 326q88 182 252 180q166 -2 252 -182q68 -145 68 -328q0 -180 -72 -326q-88 -182 -254 -180q-168 2 -260 205q-57 127 -58 305zM156 983q-2 -158 26 -276q47 -199 156 -199q113 -2 160 197q30 122 30 276q0 156 -26 276q-45 197 -158 199 q-109 0 -158 -196q-31 -121 -30 -277z" />
<glyph unicode="1" horiz-adv-x="442" d="M20 483l402 -2v41q-74 0 -104.5 27.5t-30.5 99.5l4 766q0 78 -49 78q-43 0 -101 -27q-14 -6 -43 -22v-39q6 4 27 12q16 6 29 0q12 -8 12 -20q0 -37 2 -101h-2l-4 -647q0 -76 -31 -100.5t-111 -24.5v-41z" />
<glyph unicode="2" horiz-adv-x="681" d="M20 479l584 -4l58 225h-35q-18 -39 -37 -77q-25 -39 -70 -37l-356 2q217 160 305 254q162 174 164 348q0 125 -88 205t-215 82q-203 0 -264 -181q-23 -68 -5 -127q16 -57 50 -57q39 0 100 57q18 18 31 33l-11 35q-6 -6 -24 -20q-39 -29 -58.5 3.5t-15.5 63.5 q10 70 63.5 115t127.5 43q80 0 131 -61.5t51 -141.5q-2 -315 -471 -698z" />
<glyph unicode="3" horiz-adv-x="663" d="M20 1425q0 -29 19 -69q8 -18 16 -29h25q0 2 -6 17.5t-2 27.5q6 16 24 17q135 -2 424 -5l-373 -395h3l-5 -4l31 8q23 2 43 2q106 0 194.5 -77.5t86.5 -184.5q-2 -100 -47 -164q-53 -72 -150 -69q-72 0 -127 49t-55 121q0 43 20 86q-49 0 -80.5 -31t-31.5 -80 q-2 -96 86 -147q74 -43 176 -43q139 -2 233 71q102 78 111 213q8 141 -99.5 236.5t-248.5 87.5l297 309l2 84l-512 4q-53 0 -54 -35z" />
<glyph unicode="4" horiz-adv-x="827" d="M20 844q0 -53 52 -84q41 -25 98 -25q96 0 348 -2l-2 -102q-2 -78 -31.5 -102.5t-109.5 -22.5v-41l401 -2v39q-72 2 -104.5 29.5t-30.5 97.5l2 104l111 -2q53 0 53 35q0 45 -35 98h-24q0 -4 6 -18.5t2 -26.5q-6 -16 -25 -16h-29q-78 -2 -59 -2l2 596q0 78 -49 78 q-43 0 -100 -27q-14 -6 -43 -23v-39q6 2 26 13q8 2 15 2q27 0 26 -23q0 -37 2 -102h-2l-2 -475q-141 0 -164 2q-109 2 -151 14q-74 23 -74 94q0 37 21 90l149 394q4 16 4 28q0 43 -43 45q-18 0 -70 -22q-27 -12 -43 -23v-39q4 4 27 13q12 4 29 0q16 -6 12 -19 q-25 -59 -186 -495q-8 -23 -9 -39z" />
<glyph unicode="5" horiz-adv-x="671" d="M20 633q0 -96 93 -152q76 -47 180 -47q156 -2 250 68q104 78 106 229q2 164 -100 248q-94 78 -260 78q-60 0 -117 -10l2 331l311 -2q18 -2 25 -18q4 -14 -10 -45h26q2 4 17 28q18 41 18 70q0 35 -53 35q-164 2 -422 4l-2 -426h-2v-63q18 10 98 26q137 10 230 -55 q102 -72 100 -207q0 -102 -51 -170q-55 -74 -154 -74q-74 0 -131 51.5t-57 124.5q0 45 20 91q-49 0 -83 -33t-34 -82z" />
<glyph unicode="6" horiz-adv-x="798" d="M23 879q-2 -209 143 -338q117 -104 242 -105q123 0 225 72q143 102 145 313q0 135 -84 219t-219 84q-70 0 -137 -32q-80 -37 -98 -97l20 -12q86 90 178 90q121 0 176 -129q29 -66 27 -139q-2 -127 -49 -215q-59 -111 -174 -109q-147 4 -221 162q-51 109 -54 242 q-2 141 60 295q84 213 250 219q72 4 77 -49q5 -34 -34 -52l8 -32q51 14 100 32q14 6 14 33q0 61 -65 94q-53 27 -121 25q-150 -2 -268 -137q-139 -160 -141 -434z" />
<glyph unicode="7" horiz-adv-x="657" d="M39 520q8 -88 160 -88q49 0 100 8v45q-86 -6 -88 88q-4 147 108 349q160 287 318 444v66l-498 4h-41q-39 2 -57 -27q-20 -33 22 -70l52 -43l22 19q-12 10 -22 26q-2 20 22.5 23.5t44.5 3.5l6 -2v2l349 -2q-211 -207 -336 -414q-174 -289 -162 -432z" />
<glyph unicode="8" horiz-adv-x="772" d="M20 674q0 45 19 96q66 186 203 186q38 0 71 -14q-68 -33 -117 -110.5t-49 -153.5q0 -100 74 -162q68 -59 170 -59q111 0 168 80q53 74 49 186q-4 166 -194 221q-43 10 -129 31q-195 51 -195 205q0 41 12 88q47 178 271 186q66 2 139 -45q96 -63 100 -170 q4 -160 -133 -174q-43 -4 -76 49q104 14 113 135q4 61 -46 110.5t-112 51.5q-63 2 -111 -51t-48 -117q0 -106 129 -156q74 -25 217 -77q100 -39 145 -99q55 -72 58 -196q4 -152 -115 -240q-106 -78 -262 -82q-115 -2 -224 68q-127 82 -127 213z" />
<glyph unicode="9" horiz-adv-x="798" d="M20 1049q0 -137 83 -220.5t221 -83.5q68 0 137 33q80 37 98 94l-20 13q-86 -88 -179 -88q-98 0 -155 88q-49 76 -47 178q2 129 49 215q59 111 174 108q147 -2 221 -161q51 -111 53 -242q2 -141 -59 -295q-86 -213 -250 -219q-72 -2 -78 51q-4 33 35 49l-8 33 q-39 -8 -100 -33q-14 -6 -15 -30q0 -61 66 -95q55 -29 121 -26q150 2 268 137q139 160 141 436q2 207 -143 336q-117 104 -242 105q-123 0 -225 -72q-143 -102 -146 -311z" />
<glyph unicode=":" horiz-adv-x="219" d="M27 528q-4 -68 36 -67q35 0 115 69q18 16 19 62q0 41 -25 41q-5 0 -109 -35q-43 -14 -36 -70zM31 1020q-4 -68 35 -68q34 0 114 70q18 16 19 61q0 39 -23 39l-108 -35q-43 -14 -37 -67z" />
<glyph unicode=";" horiz-adv-x="241" d="M20 246q188 55 197 311v33q0 39 -22 39q-6 0 -111 -33q-43 -14 -35 -70q-4 -68 35 -67q16 0 51 20q4 -16 4 -28q0 -94 -119 -179v-26zM51 1016q-4 -68 37 -68q37 0 115 70q16 16 18 61q0 41 -24 41q-4 0 -109 -35q-43 -14 -37 -69z" />
<glyph unicode="&#x3c;" horiz-adv-x="757" d="M20 1001l623 -423v170l-448 305l512 319q14 8 18 -14v-10l12 8q0 41 -14 61q-8 10 -27 10q-10 -2 -24 -10l-652 -407v-9z" />
<glyph unicode="=" horiz-adv-x="770" d="M20 893q0 -20 23 -66h18q-2 2 -6 13q-6 14 8 16q184 -2 629 -4q51 0 56 39q2 14 -13 45q-6 10 -10 18h-16l4 -12q4 -14 -8 -14q-150 0 -629 2q-47 0 -56 -37zM23 1122q-2 -16 12 -45l10 -20h16l-4 12q-2 8 0 12t9 4q209 -2 628 -4q49 0 54 39q2 16 -11 45q-4 8 -10 19 h-18l6 -10q6 -16 -8 -17q-150 0 -629 2q-23 0 -33 -4q-20 -12 -22 -33z" />
<glyph unicode="&#x3e;" horiz-adv-x="757" d="M20 645q0 -72 41 -72q8 2 25 13l651 405v8l-622 426v-172l448 -305l-514 -319q-12 -8 -16 14v10z" />
<glyph unicode="?" horiz-adv-x="630" d="M20 1243q0 -33 23 -80q27 -53 53 -53q33 0 103 80l-17 20q-16 -20 -30 -20q-23 0 -23 55q0 104 70 174q59 59 123 56q76 -4 118 -105q37 -86 27 -168q-10 -80 -90 -184q-53 -66 -109 -129q-57 -80 -57 -154q0 -23 4 -39l70 6q-4 10 -4 23q0 39 41 98q20 29 100 89.5 t110 99.5q61 80 68 190q10 158 -111 246q-86 63 -180 61q-109 -2 -184.5 -63.5t-99.5 -167.5q-4 -18 -5 -35zM182 510q-4 -45 21 -45q10 0 24 8q47 29 74 55q10 10 10 41q0 27 -14 27l-94 -37q-27 -10 -21 -49z" />
<glyph unicode="@" horiz-adv-x="1062" d="M20 944q0 -199 135.5 -348.5t331.5 -149.5q225 -2 406 179l-45 14q-184 -141 -336 -141q-176 2 -302 131t-124 305q2 209 143.5 330.5t352.5 119.5q137 0 256 -96q125 -102 133 -235q8 -145 -80 -250q-45 -53 -131 -68q-20 -4 -41 4v2q-20 8 -17 47l29 308q-2 10 12 28 q10 4 19 0l16 -6l2 23q-2 2 -26 14q-43 20 -60 19q-29 -6 -45 -41q-2 -6 -8 -15q-39 53 -133 53q-102 2 -170 -61t-78 -166q-10 -102 46 -173t159 -71q104 -2 149 41q12 -41 54 -49q23 -10 63 -12q80 -2 160 72q152 139 139 344q-10 168 -134 281.5t-292 113.5 q-244 2 -412.5 -151.5t-171.5 -395.5zM354 905q-8 76 31 146q45 82 123 79q43 0 83 -24.5t42 -63.5l-23 -235q-6 -63 -123 -62q-117 0 -133 160z" />
<glyph unicode="A" horiz-adv-x="1054" d="M20 467l334 -2v45h-30q-90 0 -91 55q2 16 13 41l76 187l385 -5l120 -299q18 -35 62 -43q4 -1 10 -1q30 0 90 28q27 12 45 23v39l-28 -13q-18 -8 -27.5 8.5t-17.5 32.5l-338 795q-4 6 -7 18q-18 49 -61 58q-5 1 -11 1q-28 0 -75 -24q-6 -4 -37 -20l-2 -33q2 0 25 10 q20 8 30 -16q4 -12 -2 -23l-305 -723q-25 -55 -59.5 -74.5t-98.5 -19.5v-45zM344 852l160 385q4 10 12 37q10 -45 39 -117l125 -307z" />
<glyph unicode="B" horiz-adv-x="917" d="M20 463l392 -2v45q-76 4 -94 24q-17 18 -17 83v14l6 448q2 168 121 273q53 47 111 49h5q46 0 74 -35q30 -37 31 -88v-6q-1 -48 -27 -108q-28 -64 -65 -101q-78 -76 -129 -88l18 -31q41 18 75 18q10 0 20 -2q94 -12 149 -72.5t55 -154.5q0 -113 -81 -176q-55 -41 -106 -41 q-10 0 -21 2q-63 10 -121 80l-25 -21q18 -27 72 -75q70 -47 131 -47q131 2 217 83.5t86 210.5q0 148 -143 236q-74 45 -150 49q18 8 66 39q98 80 98 178q0 80 -78 148q-51 45 -152 44q-19 0 -40 -1q-78 -6 -144 -47q-16 -10 -45 -31v10q-16 57 -71 64h-4q-27 0 -82 -25 q-27 -12 -39 -18v-35q4 2 24 10q29 12 31 -14v-15v-37q2 -16 2 -32l-4 -645q0 -74 -37 -97q-23 -14 -109 -18v-45z" />
<glyph unicode="C" horiz-adv-x="925" d="M20 940q0 -213 123 -352q129 -145 338 -148q137 0 254 72t170 195l-49 38q-39 -100 -135 -166.5t-203 -66.5q-174 2 -264 145q-76 118 -76 297v9q0 172 72 294q85 148 242 148h4q131 0 219 -92q12 -14 39 -76q1 -6 1 -11q0 -24 -20 -50l-16 -23l35 -10q33 33 63 80 q19 29 19 51q0 46 -45 80v2q-12 8 -35 22q-127 78 -264 78h-5q-207 0 -340 -153q-127 -147 -127 -363z" />
<glyph unicode="D" horiz-adv-x="1015" d="M20 469l490 -4h6q211 0 343 128q134 130 136 345q0 199 -125 338q-109 111 -321 139q-43 6 -86 31q-37 25 -103 98q-16 27 -4 41q0 2 35 25l-29 24q-6 -2 -45 -20q-59 -29 -86 -60q-16 -23 -16 -49q0 -29 18 -61q8 -14 42 -34.5t53 -23.5q45 -14 125 -26q106 -14 125 -19 q33 -10 67 -22q43 -14 74 -45h2q102 -111 102 -324v-8q0 -186 -75 -297q-87 -129 -262 -129h-5q-106 0 -138 29.5t-32 132.5l2 323q0 115 6 144q16 70 78 112l-37 31q-84 -29 -137 -110q-27 -41 -55 -160v-53l-2 -336q0 -74 -37 -97q-25 -14 -109 -18v-45z" />
<glyph unicode="E" horiz-adv-x="854" d="M20 471l793 -6l21 299h-41q-4 -72 -53.5 -141.5t-114.5 -90.5q-55 -16 -162 -16q-137 2 -150 100l2 316h70q61 0 86 -31q16 -23 27 -88h37l2 272h-37q-6 -110 -113 -110h-2h-70v160q0 115 60 192q66 86 178 86q55 0 102 -43t50 -98q0 -43 -25 -68l39 -10q72 72 72 114 q0 41 -48 83q-29 18 -55 39q-68 38 -139 38h-4h-8q-128 0 -220 -63v8q-20 55 -71 60h-4q-29 0 -90 -27q-29 -14 -41 -21v-36q4 4 24 12q31 12 33 -17q1 -6 1 -92q0 -171 -3 -661q0 -76 -37 -99q-25 -14 -109 -18v-43z" />
<glyph unicode="F" horiz-adv-x="806" d="M20 467l433 -4v45q-82 4 -109 20q-37 24 -37 90v7l2 114h-2l2 195h70q61 0 84 -31q16 -23 24 -88h37l2 270h-37q-6 -110 -103 -110h-5l-72 2l2 115v88q13 104 73 170q59 65 155 65h6q55 0 102 -43t49 -98q0 -37 -24 -68l39 -10q23 27 45 51q27 33 26 62v6q0 40 -47 78 q-18 14 -55 41q-64 36 -139 36h-4h-8q-131 0 -220 -61v-2q-23 27 -28 33q-16 14 -39 14h-5q-38 0 -96 -27q-25 -12 -43 -22v-39l27 12q20 8 41 -14q4 -6 6 -18l-6 -719q0 -74 -37 -97q-27 -16 -109 -18v-45z" />
<glyph unicode="G" horiz-adv-x="1052" d="M23 940v-7q0 -182 100 -312q106 -139 287 -172q47 -10 96 -11q16 0 74 6q55 8 215 56q8 1 15 1q54 0 93 -38l2 280q0 90 107 91h20v45l-420 4v-45h35q113 0 113 -93v-133q0 -53 -185 -100h-32q-178 0 -273 141q-82 118 -82 299v9q0 174 78 299q89 143 250 143h4 q139 0 230 -90v-2q12 -12 38 -74q2 -7 2 -14q0 -23 -20 -49l-16 -23l37 -10q43 43 65 80q16 29 18 49q2 49 -47 84q-12 8 -34 24l-2 -2q-127 78 -277 78h-6q-211 0 -346 -148q-137 -149 -139 -366z" />
<glyph unicode="H" horiz-adv-x="1177" d="M20 465l433 -4v45q-80 4 -107 20q-37 23 -37 97v65l2 219q76 203 228 215q12 1 24 1q125 0 207 -96q90 -105 90 -249q0 -213 -225 -358l-4 -35q209 63 325 236q41 61 54 170l-2 -3v41l2 433q0 74 39 96q25 16 106 18l2 45l-436 2v-45q84 -4 108 -20q37 -24 37 -89v-7 l-2 -144q-111 80 -239 80q-186 0 -314 -139l2 262v10q0 94 -73 103q-4 1 -8 1q-28 0 -78 -24q-23 -10 -39 -20v-33l24 10q29 12 31 -14v-15v-36q2 -16 2 -35l-4 -643q0 -74 -37 -97q-27 -16 -108 -18z" />
<glyph unicode="I" horiz-adv-x="473" d="M20 467l433 -2v43q-84 6 -109 20q-37 22 -37 90v7l2 65l4 633v10q0 94 -73 103q-4 1 -8 1q-30 0 -80 -24q-23 -10 -37 -20v-33l22 10q29 14 31 -14v-15v-36q2 -14 2 -33l-4 -645q0 -74 -37 -97q-27 -16 -109 -18v-45z" />
<glyph unicode="J" horiz-adv-x="372" d="M20 127q78 29 246 113q63 33 76 125q0 8 2 157l6 854v11q0 37 -12 59q-23 39 -64 43q-4 1 -8 1q-30 0 -78 -24q-23 -10 -36 -20l-2 -33q4 2 24 10q29 12 31 -14v-14v-37q2 -18 2 -33l-8 -899q0 -94 -49 -154q-37 -45 -130 -98v-47z" />
<glyph unicode="K" horiz-adv-x="1071" d="M20 465l433 -4v45q-82 4 -109 20q-37 24 -37 90v7l2 65v189l121 104l410 -475q34 -49 80 -49h4q29 2 90 53q25 20 37 33l-9 37l-24 -19q-20 -16 -39 8q-6 10 -444 506l237 219q86 80 192 80h5v45l-379 2v-43q100 -2 100 -53q0 -25 -45 -65l-336 -306l4 367v10 q0 94 -73 103q-5 1 -9 1q-33 0 -79 -24q-6 -4 -37 -20v-33l22 10q29 14 31 -16v-13v-36q2 -16 2 -35l-4 -643q0 -76 -37 -99q-25 -14 -109 -16v-45z" />
<glyph unicode="L" horiz-adv-x="856" d="M20 514l3 -49h792l21 299h-43q-6 -76 -52.5 -143.5t-115.5 -88.5q-55 -16 -162 -16q-49 0 -219 4q68 31 67 125l4 682v11q0 99 -73 104h-4q-27 0 -82 -25q-14 -6 -39 -18v-33q4 2 22 8q10 4 17 4q14 0 14 -18q0 6 -2 -184q0 -246 -2 -545q0 -76 -35 -96q-25 -14 -108 -19 z" />
<glyph unicode="M" horiz-adv-x="1370" d="M20 467l369 -4l2 35l-35 34q-37 31 -120 189q-113 211 -113 373q0 256 250 256h4q68 0 145 -39q90 -47 90 -107l-4 -579q0 -74 -39 -97q-27 -16 -106 -18l-2 -45l432 -4v45q-82 4 -107 20q-37 25 -36 97v65l4 514q0 63 92 105q74 32 143 32h4q70 0 129.5 -39.5t82 -103 t22.5 -135.5q0 -147 -97 -324q-68 -123 -151 -211q-41 -43 -41 -84q0 -63 82 -106l27 20q-23 29 -23 54q0 16 14 26q305 226 305 531v12q-4 197 -167 352q-141 133 -306 133q-57 0 -114 -24l-76 -33l-66 39q-51 24 -111 24h-5q-156 0 -312 -120q-88 -68 -131 -183 q-32 -82 -32 -171v-5v-6q0 -172 106 -323q23 -43 23 -80q0 -46 -42 -66q-35 -17 -74 -17q-8 0 -16 1v-33z" />
<glyph unicode="N" horiz-adv-x="1132" d="M20 463h431v41q-82 6 -107 20q-37 23 -37 99v63l2 223q47 -96 193 -247q104 -106 225 -160q86 -37 145 -37h132q74 0 96 -2v45q-82 4 -90 8q-31 16 -31 94l4 643q0 78 29.5 95.5t99.5 19.5v45l-383 4v-45q70 -4 98.5 -26.5t28.5 -90.5l2 -637q0 -49 -45 -49q-25 0 -59 21 q-80 47 -158 155q-14 20 -119 181q-152 233 -166 334v59v10q0 94 -73 103q-4 1 -8 1q-28 0 -78 -24q-23 -10 -39 -20v-33q4 2 24 10q29 12 31 -14v-15v-37q2 -14 2 -32l-4 -645q0 -72 -37 -97q-25 -16 -109 -18v-45z" />
<glyph unicode="O" horiz-adv-x="1069" d="M23 954q0 170 91 299.5t251 178.5l-15 -72q-33 -20 -63 -53q-125 -135 -127 -353v-8q0 -184 88 -307q100 -143 284 -143h5q180 0 270 141q74 117 76 313q0 164 -56 279q-68 143 -211 174q-15 3 -30 3q-31 0 -61 -14q-44 -22 -58 -66q-10 -31 -10 -50q0 -8 2 -14l8 -29 l-39 6q-4 8 -16 47q-15 47 -15 81q0 12 2 22q10 59 70 65q42 5 81 5q240 0 386 -185q113 -143 113 -326q-1 -218 -149 -362q-145 -142 -362 -142h-6q-224 2 -368 144q-142 140 -141 357v9z" />
<glyph unicode="P" horiz-adv-x="913" d="M20 465l431 -2l2 45q-84 4 -109 18q-37 23 -37 99l6 540q2 143 129 199q39 16 82 16q57 0 111 -32q101 -62 101 -207q0 -14 -1 -29q-4 -78 -57 -151q-57 -80 -131 -89q-8 -1 -17 -1q-61 0 -135 49l-18 -29q29 -23 98 -57q57 -18 102 -18q28 0 52 7q240 73 240 303 q0 23 -3 48q-18 201 -235 258q-47 12 -88 12q-154 0 -230 -94v4h-2q0 31 -21.5 53.5t-51.5 26.5q-4 1 -8 1q-28 0 -78 -24q-23 -10 -39 -20v-33q4 2 24 10q29 12 31 -14v-15v-36q2 -16 2 -33l-4 -645q0 -74 -37 -97q-27 -16 -109 -18v-45z" />
<glyph unicode="Q" horiz-adv-x="1071" d="M23 954v-6q0 -213 139 -354q141 -143 358 -148v-2q76 -2 131 -30q68 -34 68 -93v-10q-2 -27 -39 -43l25 -32l106 65q51 31 51 57q0 18 -20 35q-115 88 -328 103q-324 20 -324 453v5q2 195 76 314q89 143 268 143h5q184 -2 270 -147q72 -116 72 -304v-10 q-2 -370 -244 -440l108 -25q143 59 223.5 183.5t80.5 279.5v6q0 221 -141 360q-144 142 -369 144h-6q-219 0 -363 -139q-145 -141 -147 -365z" />
<glyph unicode="R" horiz-adv-x="974" d="M20 469l433 -2v45q-84 4 -109 18q-35 20 -35 99l4 540q0 143 129 199q39 16 82 16q57 0 111 -32q101 -62 101 -207q0 -14 -1 -29q-4 -76 -35 -139q-39 -78 -100 -94q-25 -6 -43 -6q-43 0 -125 47l-24 -21l335 -385q32 -49 80 -49h4q27 2 91 53q25 20 36 33l-10 37 l-22 -19q-20 -16 -39 9q-4 8 -224 256q209 78 209 297q0 238 -237 301q-47 12 -88 12q-150 0 -230 -94v4q-8 72 -73 80q-4 1 -8 1q-30 0 -80 -24q-23 -10 -37 -20v-33l22 10q23 10 27 -2t6 -27l-2 -36q2 -14 2 -33l-4 -645q0 -74 -37 -97q-27 -16 -109 -18v-45z" />
<glyph unicode="S" horiz-adv-x="724" d="M31 688q-1 -6 -1 -12q0 -52 74 -125q111 -109 295 -109q135 0 220.5 80t85.5 215q0 143 -132 238q-160 84 -247 133q-133 74 -133 170q0 61 49 98t112 37q57 0 122 -37t87 -86q18 -39 -6 -47q-12 -2 -22 -6l20 -20q63 10 68 12q41 12 47 41q1 4 1 8q0 37 -63 94 q-92 84 -256 84q-113 0 -188 -65q-82 -68 -82 -179q-2 -131 129 -219q82 -41 242 -129q133 -76 131 -186q0 -86 -55.5 -139.5t-141.5 -53.5q-182 2 -250 179q-18 47 6 55q12 4 23 6l-21 25q-53 -8 -69 -15q-39 -14 -45 -47z" />
<glyph unicode="T" horiz-adv-x="841" d="M20 1190h43q27 88 48 113q31 39 104 47l121 -2q-227 -139 -230 -426v-8q0 -198 99 -322q111 -139 307 -146h27q208 0 282 117l-30 8q-50 -65 -179 -65h-4q-164 2 -252 147q-69 119 -69 292q0 303 157 382l41 21l269 2l2 69l-289 2v2q-2 0 -4 -2l-416 4z" />
<glyph unicode="U" horiz-adv-x="927" d="M20 776q0 -96 58 -172q102 -137 284 -139q176 0 279 86v-29h2v-57h258v43q-74 4 -92 16q-35 23 -35 101l4 645q0 78 29.5 95t99.5 19v46l-383 2v-46q72 -4 97 -22q31 -25 30 -94l-4 -570q-56 -155 -225 -155h-6q-252 2 -252 217q0 51 14 100h-2l82 416q14 49 14 84 q0 23 -8 37t-19.5 28.5t-33.5 16.5h-7q-29 0 -81 -25q-14 -6 -37 -18v-33q6 4 23 10q29 12 30 -16q-2 -12 -16 -84q-4 -20 -100 -449l2 -2q-4 -27 -5 -51z" />
<glyph unicode="V" horiz-adv-x="946" d="M20 1325q32 14 53 14q8 0 15 -2q23 -8 45 -59l98 -217l230 -537q39 -84 63 -84q90 0 219 181q100 137 150 260q33 82 33 172q-1 145 -60 262q-33 63 -39 71q-31 41 -67 41q-27 0 -60 -18q-43 -25 -98 -51v-35q31 14 53 14q39 0 74 -67q92 -174 92 -289q0 -209 -141 -326 q-25 -20 -47 -20q-29 0 -45 33q-76 147 -215 481q-57 135 -119 260q-23 20 -61 21q-41 0 -74 -19q-43 -25 -99 -51v-35z" />
<glyph unicode="W" horiz-adv-x="1282" d="M20 756q0 -100 60 -176q106 -137 297 -140h11q166 0 259 58q135 -61 254 -62h5q186 0 294 135q61 78 62 181q0 23 -2 43l2 2l-99 450q-14 63 -16 84q2 29 31 17l24 -11v33q-12 8 -39 21q-50 25 -80 25q-5 0 -10 -1q-29 -2 -55 -45q-10 -12 -10 -39q0 -35 14 -82l80 -415 l-2 -3q2 -18 2 -40q0 -273 -254 -273h-2q-70 0 -107 23q-20 12 -20 69l2 484q0 68 28.5 91t98.5 23v45l-387 2v-43q76 -4 93 -22.5t17 -93.5l-4 -484v-41q-4 -18 -16 -26q-45 -25 -119 -25q-250 2 -250 271q0 27 2 47l-2 2l86 413q14 70 15 84q0 27 -9 39q-16 25 -18 27 q-14 14 -39 16h-9q-36 0 -95 -28q-12 -6 -25 -15v-33q29 14 41 15q14 0 14 -19q0 -4 -16 -86q-6 -18 -104 -448l2 -2q-4 -23 -5 -47z" />
<glyph unicode="X" horiz-adv-x="1046" d="M20 471q29 -6 68 -6q166 0 285 135q16 18 155 250l113 -174q2 -4 6 -10l72 -111l37 -53q42 -69 93 -69q16 0 32 7q29 12 59 64q12 18 18 35l-18 28q-2 -4 -12 -18t-21 -14q-6 0 -14 10q0 2 -8 12l-23 33q-10 12 -20 28l-4 9l-230 350q59 104 160 260q113 140 258 156v26 q-29 8 -68 8q-164 0 -282 -137q-25 -29 -135 -211l-2 2h2l-78 117q0 4 -4 10l-72 111h-2l-35 55q-23 39 -49 53q-26 15 -49 15q-15 0 -29 -6q-25 -12 -57 -66q-8 -14 -21 -35l21 -28l12 20q16 27 35 2l8 -12l21 -31q8 -12 20 -29l6 -8l195 -299q-117 -213 -184 -297 q-113 -139 -259 -153v-29z" />
<glyph unicode="Y" horiz-adv-x="876" d="M20 1399l5 -23q31 18 47 13q18 -4 37 -35l282 -473h-2l2 -2l-2 -250q0 -74 -37 -97q-25 -14 -108 -18v-45l430 -2l2 45q-80 2 -107 18q-39 25 -39 99l2 229q2 2 3 4q70 119 202 309q70 100 111 170q1 6 1 12q0 41 -50 68q-41 23 -68 39l-20 -12q14 -8 32 -37 q2 -18 -18 -49q-66 -98 -76 -119l-178 -260q-68 100 -184 301q-51 88 -107 172q-16 10 -37 10q-25 0 -63 -24q-31 -23 -60 -43z" />
<glyph unicode="Z" horiz-adv-x="1052" d="M20 459q72 30 160 30h6q66 0 117 -14l189 -53q78 -18 147 -23q15 -1 30 -1q121 0 240 57q55 27 123 96l-26 18q-105 -111 -267 -111q-15 0 -30 1q-78 4 -187 59q-119 61 -153 68q-51 10 -82 12l561 807v18l-735 7l-29 -240h47q50 182 208 182h3l313 -2l-596 -852h2z" />
<glyph unicode="[" horiz-adv-x="243" d="M20 152h3l8 1247q-4 94 65 100q29 2 127 -49v-29l-20 9q-14 6 -29 2q-16 -4 -16 -19q0 2 -8 -1278v-12q0 -23 26 -12l21 8v-29q-8 -4 -33 -18q-49 -23 -78 -21q-66 6 -66 101z" />
<glyph unicode="\" horiz-adv-x="647" d="M23 1415q10 72 118 62q23 -2 56 -7l10 -26h-21q-16 2 -29.5 -6t-6.5 -25l460 -1243q16 -37 13 -59q-12 -74 -119 -64q-14 2 -55 6l-11 29q7 0 23 -2q14 0 27.5 9t9.5 22l-463 1243q-14 41 -12 61z" />
<glyph unicode="]" horiz-adv-x="241" d="M20 1421l21 9q14 6 29 2q16 -4 16 -19q2 -213 8 -1278v-12q-2 -23 -26 -12l-21 8v-29q8 -4 33 -18q49 -23 76 -21q65 7 65 101l-8 1247q4 94 -66 100q-27 2 -77 -22q-14 -8 -50 -27v-29z" />
<glyph unicode="^" horiz-adv-x="870" d="M20 973q156 217 330 448q55 74 99 74q43 0 102 -76q23 -29 145 -215q35 -51 154 -235h-66q-33 49 -133 200q-72 109 -88 129q-45 59 -76 60q-16 0 -30 -19q-66 -86 -267 -366h-170z" />
<glyph unicode="_" horiz-adv-x="770" d="M20 305q0 -14 13 -45q6 -10 10 -18h18l-6 12q-8 14 8 14q150 0 629 -2q51 0 56 39q1 14 -13 43l-10 21h-16l4 -13q4 -14 -8 -16q-180 2 -629 4q-49 0 -56 -39z" />
<glyph unicode="`" horiz-adv-x="272" d="M20 1214l25 -30q12 39 37 43q6 0 125 -86l45 43l-53 67q-72 90 -95 90q-12 0 -24 -16q-16 -25 -39 -63q-14 -23 -21 -48z" />
<glyph unicode="a" horiz-adv-x="804" d="M23 795v-6q0 -137 86 -231q88 -96 227 -95q143 0 196 55q29 -74 115 -74h3q101 0 134 121h-45q0 -4 -4 -10q-8 -29 -14 -35t-33 -4q-39 2 -39 66l2 424v22q0 10 15 16q14 4 24 0l23 -10v33q-12 8 -37 20q-47 24 -74 24q-6 0 -10 -1q-41 -6 -57 -55q-2 -4 -9 -21 q-61 74 -190 74q-139 0 -226 -86t-87 -227zM152 799q0 98 45 170q50 84 139 84h4q59 0 113 -31q63 -37 69 -90l-2 -324q0 -84 -153 -84h-7q-96 0 -155 92q-53 80 -53 183z" />
<glyph unicode="b" horiz-adv-x="679" d="M20 741q0 -82 37 -141q100 -158 279 -158q164 0 262 138q61 84 61 186q0 49 -18 102q-35 100 -118 161t-187 61q-47 0 -90 -13h2l-6 -33h2q20 8 43 9q82 0 151 -74q59 -63 88 -150q20 -61 21 -124q0 -86 -39 -150q-47 -74 -129 -74q-96 0 -162.5 77t-66.5 175q0 35 6 70 q20 121 110 524l27 111q1 6 1 12q0 35 -50 59q-8 4 -25 4q-23 0 -61 -8q-14 -2 -41 -10l-6 -31q2 0 22 4q10 2 22.5 -7t10.5 -19l-21 -84q-29 -129 -114 -531q-10 -47 -11 -86z" />
<glyph unicode="c" horiz-adv-x="598" d="M20 774q0 -164 123 -262q82 -66 181 -66q160 0 254 144l-43 4q-53 -89 -162 -89q-11 0 -23 1q-96 8 -149 96q-45 76 -45 180q0 98 51 183q57 96 144 96h7q39 -2 81 -37t42 -72q0 -25 -18 -45l35 -43q61 35 63 94q0 39 -49 80q-82 66 -184 66q-152 0 -244 -131 q-63 -90 -64 -199z" />
<glyph unicode="d" horiz-adv-x="694" d="M20 741q0 -211 232 -280q53 -16 104 -17q137 0 230 105q88 98 88 237q0 29 -6 58l-127 610q-2 10 10 18.5t22 6.5l23 -4l-6 30q-8 2 -39 11q-37 8 -60 8q-17 0 -26 -4q-54 -25 -54 -59q0 -5 1 -11l26 -109l58 -280q-82 35 -162 35q-221 0 -295 -242q-18 -59 -19 -113z M143 682q0 59 21 127q72 235 216 235h1q20 0 47 -6q106 -25 107 -225q0 -66 -11 -102q-61 -217 -207 -217q-24 0 -53 8q-121 35 -121 180z" />
<glyph unicode="e" horiz-adv-x="604" d="M20 768q0 -139 84 -231.5t222 -92.5h4q161 0 254 148l-43 22q-82 -112 -193 -112q-190 2 -190 288v9l168 -2v53h-166q2 80 39 135q43 63 118 64q102 -2 129 -107h111q-68 160 -231 162q-139 0 -221 -97.5t-85 -238.5z" />
<glyph unicode="f" horiz-adv-x="591" d="M20 465l357 -2v45q-72 4 -100.5 28.5t-28.5 94.5l2 413l135 -2l2 45l-135 3v174q0 61 37 118q36 54 92 54h4q37 0 75 -36t38 -73q0 -25 -19 -45l35 -43q55 39 57 94q-2 41 -45 80q-74 66 -168 66q-55 0 -106 -25q-78 -41 -107 -154q-16 -70 -18 -210l-4 -459 q-2 -117 -100 -119z" />
<glyph unicode="g" horiz-adv-x="718" d="M20 772q0 -141 84 -233.5t224 -94.5q131 0 182 43v-196q0 -84 -51 -141q-76 -59 -125 -60q-43 0 -91 32t-57 73q-2 6 -2 12q0 24 37 39l-16 24q-102 -61 -115 -106q-1 -4 -1 -9q0 -34 63 -91q71 -64 108 -64q84 0 184 55q41 25 123 74q53 31 64 111q4 27 4 135l4 604v20 q0 10 14.5 15.5t24.5 3.5l20 -10v30q-5 5 -34 21q-50 23 -74 23q-4 0 -8 -1q-45 -8 -60 -53l-6 -20q-60 71 -185 71h-3q-137 0 -222.5 -85t-85.5 -222zM147 774q0 94 43 166q53 86 142 86q59 0 112 -31q61 -37 68 -90l-2 -319q0 -82 -151 -82h-7q-94 0 -153 92 q-51 78 -52 178z" />
<glyph unicode="h" horiz-adv-x="813" d="M20 467l326 -2l2 47q-100 2 -100 121l2 301q67 96 181 96h5q100 -2 154 -117q43 -88 43 -205q0 -229 -187 -313l-2 -37q307 92 336 383q1 16 1 32q-1 112 -75 211q-86 114 -214 124q-15 1 -29 1q-127 0 -213 -95l4 383q2 39 -10 59q-20 35 -56 39q-4 1 -8 1 q-26 0 -69 -21q-23 -10 -33 -17v-28l20 8q27 10 27 -15q0 -6 2 -10l-4 -780q0 -117 -103 -119v-47z" />
<glyph unicode="i" horiz-adv-x="368" d="M20 465l326 -2l2 47q-100 2 -100 121l2 373v10q0 84 -66 90h-4q-25 0 -71 -21q-16 -8 -33 -18v-29l20 8q25 10 27 -12v-12v-389q0 -119 -103 -119v-47zM109 1249v-12q0 -45 28 -45q39 0 119 72q12 12 14 53q0 33 -18 33q-10 0 -25 -4q-39 -16 -90 -35q-30 -10 -30 -44 q0 -8 2 -18z" />
<glyph unicode="j" horiz-adv-x="385" d="M20 53q80 27 254 117q63 33 78 129q0 6 2 162l4 528v11q0 37 -12 59q-25 43 -65 47h-4q-25 0 -84 -25q-27 -12 -41 -20v-35q8 2 24 10q31 14 33 -14v-14v-39q2 -18 2 -35l-6 -574q0 -92 -51 -155q-41 -51 -134 -103v-49zM201 1255v-7q0 -50 30 -50q39 0 119 72 q14 12 15 53q0 33 -19 33q-10 0 -24 -4q-43 -18 -93 -35q-29 -10 -29 -46q0 -8 1 -16z" />
<glyph unicode="k" horiz-adv-x="741" d="M20 465l326 -2l2 45q-100 2 -100 121v182l47 35l170 -232q35 -47 117 -145q14 -16 28 -16t54 39l57 57l-27 29q-8 -8 -35 -21q-20 -4 -49 21l-235 327q94 70 131 94q14 10 26 5q8 -6 7 -19q-2 -12 -15 -18q18 -9 34 -9t30 9q33 20 33 55q0 29 -29 48.5t-60 19.5 q-51 0 -102 -46l-180 -122l2 471h2q0 94 -66 100h-4q-25 0 -73 -20q-18 -10 -33 -19v-29l20 9q27 10 27 -13q0 -8 2 -12l-4 -778q0 -119 -103 -121v-45z" />
<glyph unicode="l" horiz-adv-x="366" d="M20 465l326 -2v47q-100 2 -100 121l6 762v9q0 81 -66 91q-4 1 -8 1q-26 0 -67 -21l-33 -17l-2 -31l22 11q25 12 27 -15v-10l-4 -780q0 -119 -101 -119v-47z" />
<glyph unicode="m" horiz-adv-x="1075" d="M20 465l326 -2v47q-102 2 -100 121l4 340q74 59 141 59q131 -2 129 -147l-2 -252q0 -119 -100 -121v-45l325 -2v45q-98 4 -98 121l2 332q27 65 112 65h3q70 0 125 -47t55 -115q0 -16 -59 -184q-18 -51 -19 -102q0 -156 183 -191l4 35q-74 14 -74 106q0 37 14 86 q6 20 41 115q23 63 23 107q0 41 -13 82q-55 182 -215 184q-106 0 -200 -86q-45 88 -162 90q-111 0 -215 -84v2v10q0 84 -66 90h-4q-25 0 -71 -20q-12 -6 -35 -19v-28l20 8q27 10 29 -12v-13l-2 -409q0 -117 -101 -119v-47z" />
<glyph unicode="n" horiz-adv-x="727" d="M20 465l326 -2v47q-102 2 -100 121l4 354q70 53 135 53q72 0 134.5 -46t62.5 -115q0 -23 -64 -185q-20 -51 -20 -102q0 -156 200 -193l4 37q-79 14 -79 105q0 39 14 88q8 20 45 114q25 63 25 107q0 37 -15 82q-59 182 -235 184q-111 0 -207 -76q0 74 -66 80h-4 q-25 0 -71 -20l-33 -17l-2 -30l22 8q25 12 27 -12v-13l-2 -403q0 -117 -101 -119v-47z" />
<glyph unicode="o" horiz-adv-x="700" d="M20 799q0 184 185 276q82 41 160 41q178 0 276 -194q39 -78 39 -158q0 -187 -184 -279q-86 -43 -164 -43q-176 0 -269 185q-43 86 -43 172zM127 883q0 -78 61 -201q90 -178 211 -178q37 0 78 20q94 47 94 156q0 78 -51 178q-100 197 -215 197q-39 -1 -82 -21 q-96 -47 -96 -151z" />
<glyph unicode="p" horiz-adv-x="768" d="M20 111l3 -45h69q82 0 131 51q27 27 27 55q0 111 6 756q8 53 70 88q55 31 112 31q88 -2 140 -86q43 -72 43 -164q0 -100 -54 -181q-59 -92 -155 -92q-84 0 -123 23l4 -31q55 -51 143 -51h6q133 0 217 91q86 93 89 232q0 137 -84.5 223.5t-221.5 88.5q-127 0 -188 -70 l-6 21q-14 47 -58 55q-3 1 -7 1q-26 0 -77 -24q-12 -6 -34 -18v-33l20 10q10 2 24.5 -3t14.5 -15v-23l-8 -806q0 -25 -6 -35q-18 -31 -97 -49z" />
<glyph unicode="q" horiz-adv-x="757" d="M23 797v-7q0 -136 81 -228q84 -93 224 -95h11q120 0 171 43l-2 -336q0 -27 27 -55q51 -53 131 -53q51 0 69 -3l2 48q-27 0 -61 18q-23 13 -33 31q-8 10 -8 35l2 256h-2l2 122v9l4 417q-2 12 14 37q12 6 25 2l22 -10v31q-8 6 -34 20q-50 25 -77 25h-7q-39 -8 -58 -55 l-8 -21q-59 72 -186 74h-6q-133 0 -216 -82q-85 -84 -87 -223zM147 797q0 94 48 168q52 84 137 84h4q57 0 110 -33q61 -37 68 -90l-4 -318q-2 -82 -151 -82h-7q-92 2 -151 92q-53 80 -54 179z" />
<glyph unicode="r" horiz-adv-x="559" d="M20 463l326 -2v47q-100 2 -100 121l2 262q0 61 31 106q32 52 90 52h2q92 -2 92 -80q0 -29 -25 -47l21 -31q80 35 80 84q0 24 -27 53q-72 74 -152 74q-55 0 -118 -31q-20 41 -58 45h-5q-27 0 -73 -20q-18 -10 -32 -19v-28l20 8q27 10 27 -13q2 -6 2 -12l-2 -403 q0 -117 -101 -119v-47z" />
<glyph unicode="s" horiz-adv-x="466" d="M27 592q-1 -3 -1 -7q0 -28 40 -73q59 -68 174 -70q86 0 146 53.5t60 137.5q0 90 -81 149q-70 37 -142 74q-94 58 -94 107q0 84 82 84h4q78 0 104 -64q12 -29 -4 -35l-16 -4l14 -14q33 4 49 8q35 11 35 33q0 25 -39 67q-57 63 -153 64q-78 0 -125 -48t-47 -126 q-2 -84 82 -144q137 -72 143 -75q92 -59 92 -117q0 -41 -31.5 -66.5t-74.5 -25.5q-76 2 -127 57q-6 8 -13 18q-14 31 21 39l-16 15q-33 -4 -48 -8q-31 -10 -34 -29z" />
<glyph unicode="t" horiz-adv-x="544" d="M20 930h27q16 55 33.5 76.5t62.5 23.5l50 2l-5 -389v-5q0 -194 152 -194q109 0 184 115l-30 25q-66 -63 -107 -64q-74 0 -74 109v6l2 223l2 172h166v2h2v45h-2l-164 2v133v10q0 84 -65 91h-4q-25 0 -72 -21q-16 -8 -33 -18v-29q4 2 21 8q25 12 27 -12v-12v-150h-156z" />
<glyph unicode="u" horiz-adv-x="688" d="M20 707q0 -33 13 -72q25 -78 89 -128t144 -50q111 0 183 49v-47h215l4 41q-101 4 -101 121l2 475l-225 2v-47q100 -2 100 -121l2 -336q-10 -72 -127 -72q-74 0 -131 37q-65 42 -65 111q0 25 6 43q33 92 66 207q8 29 8 59q0 129 -156 141l-12 -24q63 -33 63 -101 q0 -27 -53 -172q-25 -68 -25 -116z" />
<glyph unicode="v" horiz-adv-x="641" d="M20 1030q29 14 46 8q18 -8 30 -39l64 -145l141 -332q6 -8 8 -16l2 -6q25 -55 43 -56q59 0 146 119q66 92 98 172q23 55 23 115q0 96 -39 172q-12 27 -39 63q-14 12 -32.5 12.5t-39.5 -12.5q-23 -12 -65 -34v-23q31 14 45 8q20 -8 38 -43q55 -104 56 -190q0 -141 -84 -209 q-18 -14 -29 -14q-18 0 -24 22q-49 88 -144 318q-35 84 -80 174q-14 14 -37 14q-25 0 -65 -21q-31 -18 -62 -34v-23z" />
<glyph unicode="w" horiz-adv-x="970" d="M20 680q0 -94 69 -160.5t163 -66.5q70 0 145 51q66 -51 131 -51q147 0 193 57v-47h225v45q-98 4 -98 121l2 293q2 116 100 118v47l-325 3v-48q102 -2 100 -120l-2 -80v-211q0 -20 -4 -41q-10 -27 -41 -53.5t-57 -26.5q-27 -6 -46 -6h-8q-63 0 -110 63q-47 59 -47 129 q0 45 18 86q35 76 90 207q16 35 16 61q0 22 -12 37q-16 23 -51 23q-29 0 -65 -20q-29 -16 -60 -33v-31q27 10 43 10q8 0 14 -2q27 -16 27 -37q0 -8 -6 -18q-20 -45 -92 -201q-20 -45 -21 -100q0 -88 60 -150q-33 -20 -86 -22h-4q-65 0 -115 63q-47 59 -47 129q0 45 18 86 q35 76 90 207q16 35 16 61q0 22 -12 38q-15 22 -48 22h-3q-29 0 -65 -20q-29 -16 -60 -33v-31q41 16 58 6q27 -14 26 -35q0 -8 -6 -18q-23 -47 -92 -201q-20 -45 -21 -100z" />
<glyph unicode="x" horiz-adv-x="757" d="M20 469q23 -6 52 -6q125 0 215 102q14 16 100 158v4q203 -254 211 -260q21 -10 40 -10q17 0 32 8q23 12 49 59q10 18 16 33l-18 25l-10 -19q-12 -23 -31 -4l-8 10l-207 260q31 51 80 129q86 106 196 117v23q-23 4 -51 4q-125 0 -215 -103q-23 -25 -65 -98 q-158 197 -166 201q-21 10 -40 10q-17 0 -32 -8q-23 -10 -49 -57q-10 -18 -17 -33l19 -25l10 19q12 23 31 4l8 -11l162 -204q-43 -76 -117 -191q-84 -106 -195 -117v-20z" />
<glyph unicode="y" horiz-adv-x="595" d="M29 713q0 -102 72.5 -175t172.5 -75h8q101 0 173 51l-6 -195q-2 -88 -52 -141q-76 -59 -125 -59q-45 0 -91 31.5t-56 72.5q-1 5 -1 10q0 26 36 41l-17 23q-43 -27 -65 -45q-39 -33 -47 -59q-1 -4 -1 -9q0 -34 62 -90q72 -65 109 -65q84 0 182 55q41 25 123 74 q55 33 65 110q2 12 2 135l2 701h-223v-47q96 -2 99 -121l4 -334q-12 -72 -123 -72h-6q-76 0 -131 35q-63 41 -64 113q0 25 6 43q16 51 64 207q8 29 8 57q0 129 -156 143l-12 -26q63 -33 63 -101q0 -20 -53 -172q-23 -63 -22 -116z" />
<glyph unicode="z" horiz-adv-x="747" d="M20 455q51 22 112 22h5q45 0 82 -10q63 -18 131 -37q49 -14 103 -16q11 -1 23 -1q84 0 165 40q39 18 86 67l-18 12q-74 -78 -188 -78q-9 0 -19 1q-53 2 -129 41q-86 43 -109 49q-12 2 -26 4l374 508v47l-506 2l-22 -182h41q45 84 45 86q33 49 76 49l215 -2l-369 -500h-2 l-41 -61h2z" />
<glyph unicode="{" horiz-adv-x="540" d="M20 889q88 -6 105 -15q37 -18 37 -88q-2 -84 -6 -301q-4 -211 215 -211h106q23 0 31 19q2 12 -12 37h-11q2 -2 4 -8t-4 -9h-84q-82 10 -110 66q-27 43 -25 131q2 59 4 213q2 178 -120 201v6q76 16 102 67q20 37 20 123q0 952 -4 146q0 94 25 145q31 68 106 80h97 q8 -2 4 -8l-2 -8h10q12 29 12 36q-2 8 -12 17q-6 2 -19 2h-108q-143 0 -186 -76q-35 -59 -33 -217l2 -74v-104q0 -66 -41 -90q-29 -16 -103 -21v-59z" />
<glyph unicode="|" horiz-adv-x="143" d="M20 213l9 1251h94l-8 -1251h-95z" />
<glyph unicode="}" horiz-adv-x="540" d="M20 1511q0 8 13 17q6 2 18 2h107q147 0 188 -76q33 -59 33 -217v-74q-2 -59 -2 -104q0 -66 41 -90q29 -16 102 -21v-59q-88 -6 -104 -15q-37 -18 -37 -88q2 -84 6 -301q4 -211 -215 -211h-107q-20 0 -30 19q-2 12 12 37h8q0 -2 -2 -8t4 -9h82q82 10 113 64q27 45 24 133 q-2 59 -4 213q-2 178 121 201v6q-78 16 -104 69q-18 39 -21 334q-2 139 -125 158h-96q-8 -2 -4 -8l2 -8h-10q-12 29 -13 36z" />
<glyph unicode="~" horiz-adv-x="503" d="M29 793q6 -27 43 -52l16 7l-8 8q-16 16 2 30q8 6 37 7q43 0 170 -21q115 -18 129 -14q35 6 53 26q12 16 6 41q-1 12 -26 37q-6 8 -15 15l-16 -5l8 -10q8 -8 8 -26q2 -23 -18 -25q-33 0 -140.5 25.5t-160.5 25.5q-35 0 -62 -16q-35 -20 -26 -53z" />
<glyph unicode="&#xad;" d="M23 799q-2 -16 22 -66h16l-4 12q-6 16 9 17h251q23 0 33 4q20 12 23 33q1 16 -13 45l-10 20h-16q0 -4 4 -12q6 -14 -6 -16h-254q-23 0 -33 -5q-20 -12 -22 -32z" />
<glyph unicode="&#x2000;" horiz-adv-x="817" />
<glyph unicode="&#x2001;" horiz-adv-x="1635" />
<glyph unicode="&#x2002;" horiz-adv-x="817" />
<glyph unicode="&#x2003;" horiz-adv-x="1635" />
<glyph unicode="&#x2004;" horiz-adv-x="545" />
<glyph unicode="&#x2005;" horiz-adv-x="408" />
<glyph unicode="&#x2006;" horiz-adv-x="272" />
<glyph unicode="&#x2007;" horiz-adv-x="272" />
<glyph unicode="&#x2008;" horiz-adv-x="204" />
<glyph unicode="&#x2009;" horiz-adv-x="327" />
<glyph unicode="&#x200a;" horiz-adv-x="90" />
<glyph unicode="&#x2010;" d="M23 799q-2 -16 22 -66h16l-4 12q-6 16 9 17h251q23 0 33 4q20 12 23 33q1 16 -13 45l-10 20h-16q0 -4 4 -12q6 -14 -6 -16h-254q-23 0 -33 -5q-20 -12 -22 -32z" />
<glyph unicode="&#x2011;" d="M23 799q-2 -16 22 -66h16l-4 12q-6 16 9 17h251q23 0 33 4q20 12 23 33q1 16 -13 45l-10 20h-16q0 -4 4 -12q6 -14 -6 -16h-254q-23 0 -33 -5q-20 -12 -22 -32z" />
<glyph unicode="&#x2012;" d="M23 799q-2 -16 22 -66h16l-4 12q-6 16 9 17h251q23 0 33 4q20 12 23 33q1 16 -13 45l-10 20h-16q0 -4 4 -12q6 -14 -6 -16h-254q-23 0 -33 -5q-20 -12 -22 -32z" />
<glyph unicode="&#x2013;" horiz-adv-x="1067" d="M22 799q-5 -16 65 -66h47l-12 12q-18 16 26 17h734q67 0 97 4q58 12 67 33q3 16 -38 45l-29 20h-47q0 -4 11 -12q18 -14 -17 -16h-743q-67 0 -96 -5q-59 -12 -65 -32z" />
<glyph unicode="&#x2014;" horiz-adv-x="2090" d="M23 799q-12 -16 129 -66h93l-23 12q-35 16 52 17h1468q135 0 193 4q117 12 135 33q5 16 -76 45l-59 20h-93q0 -4 23 -12q35 -14 -35 -16h-1485q-135 0 -193 -5q-117 -12 -129 -32z" />
<glyph unicode="&#x202f;" horiz-adv-x="327" />
<glyph unicode="&#x205f;" horiz-adv-x="408" />
<glyph unicode="&#xe000;" horiz-adv-x="1116" d="M0 0v1116h1116v-1116h-1116z" />
</font>
</defs>
</svg>
